<svg width="177" height="52" fill="none" xmlns="http://www.w3.org/2000/svg"><path d="m7.79 23.383 2.655-1.31 4.195-6.281 1.284-.524 1.37 6.37-1.798.261-1.37-2.617-1.027 4.1h4.537l4.709 1.222 1.883-1.221 3.168 3.315 1.37-6.107 2.226 2.268 1.37-1.92 2.225-.61 3.254-3.054.513-1.483 2.654.436 1.113 1.483-1.969 4.188 4.88-2.53v-1.221l1.884-.437 2.054 2.094 2.055-2.53V15.53l3.339-2.355 1.37-2.007h2.14l3.767-7.765L64.894 0l1.199 1.92-1.884 2.442.685 1.57 1.798.35 1.455 6.456v5.41l2.569 3.577L72 26.698l-4.452-2.88-1.969-8.288-1.198.262-.172 5.584-3.253 5.322-.942 8.114 2.226.524.942-1.135 2.14 2.443 1.627 7.33-.171 4.71h-2.055l-.77-6.63-1.456 2.006-3.168-.698-2.568-2.18-2.91 1.046.17 4.712-2.311.61-3.425 2.618-4.109-.524-1.627-.96-2.568.437.856 1.047-2.055 1.221-1.626-.785L34.074 52l-4.709-2.356-1.798-4.188-1.54.175-1.799-1.483-.085-1.135-5.736-.61-.942 3.14-3.596-1.657-1.798-3.054H8.22l-.428 4.886-2.226.698-1.113 4.45-.856-.785L0 40.745l4.28-2.094-.684-4.1-.685-4.189 1.883-2.704L4.195 26l2.568-2.792 1.028.175Zm56.933 10.295 3.938 5.933 1.284-.524-1.626-2.443-3.596-3.839v.873Zm-40.238-12.04v-1.745l2.997-2.182 2.568-1.308h-2.997l-2.654 1.57-1.626 1.483v2.182h1.712ZM90.125 41h4.739V35.82h2.625c3.98 0 6.647-2.344 6.647-6.103 0-3.716-2.599-6.17-6.477-6.17h-7.534V41Zm4.739-8.863V27.33h1.67c1.662 0 2.66.886 2.66 2.386 0 1.492-.998 2.42-2.66 2.42h-1.67ZM111.969 41.24c4.261 0 6.784-2.728 6.784-6.75 0-4.024-2.523-6.75-6.784-6.75-4.262 0-6.784 2.726-6.784 6.75 0 4.022 2.522 6.75 6.784 6.75Zm.034-3.478c-1.262 0-2.012-1.253-2.012-3.307 0-2.054.75-3.307 2.012-3.307 1.193 0 1.943 1.253 1.943 3.307 0 2.054-.75 3.307-1.943 3.307ZM126.969 41.24c3.878 0 6.255-2.225 6.307-5.694h-4.364c-.102 1.372-.844 2.114-1.875 2.114-1.236 0-2.046-1.057-2.046-3.205s.81-3.205 2.046-3.205c1.04 0 1.747.742 1.875 2.114h4.364c-.026-3.409-2.455-5.625-6.307-5.625-4.262 0-6.784 2.727-6.784 6.75s2.522 6.75 6.784 6.75ZM141.523 41.24c3.878 0 6.256-2.225 6.307-5.694h-4.363c-.103 1.372-.844 2.114-1.875 2.114-1.236 0-2.046-1.057-2.046-3.205s.81-3.205 2.046-3.205c1.039 0 1.747.742 1.875 2.114h4.363c-.025-3.409-2.454-5.625-6.307-5.625-4.261 0-6.784 2.727-6.784 6.75s2.523 6.75 6.784 6.75ZM154.203 35v-7.09h-4.432V41h4.432l3.648-7.125V41h4.432V27.91h-4.432L154.203 35ZM172.212 41h4.363V27.91h-6.136c-3.776 0-6.162 1.909-6.136 4.568-.017 1.491.877 2.727 2.446 3.46L164.166 41h4.33l2.207-4.33h1.509V41Zm0-7.159h-1.671c-1.253 0-1.832-.613-1.807-1.193-.025-.545.52-1.227 1.705-1.227h1.773v2.42Z" fill="#fff"/></svg>